<svg width="168" height="150" viewBox="0 0 168 150" fill="none" xmlns="http://www.w3.org/2000/svg">
<path d="M83.9893 90.2952C92.4366 90.2952 99.2845 83.4473 99.2845 75C99.2845 66.5527 92.4366 59.7048 83.9893 59.7048C75.542 59.7048 68.6941 66.5527 68.6941 75C68.6941 83.4473 75.542 90.2952 83.9893 90.2952Z" fill="#61DAFB"/>
<path d="M142.084 49.7764C139.132 48.703 136.047 47.6297 132.826 46.6905C133.631 43.4705 134.302 40.2504 134.839 37.1646C137.657 19.4544 134.571 6.97674 125.984 2.14669C123.435 0.67084 120.617 0 117.397 0C108.005 0 96.0644 6.97674 83.9893 18.6494C71.9141 6.97674 59.9732 0 50.5814 0C47.3614 0 44.5438 0.67084 41.9946 2.14669C33.4079 7.11091 30.322 19.5885 33.1395 37.1646C33.6762 40.2504 34.347 43.4705 35.1521 46.6905C31.932 47.6297 28.8462 48.5689 25.8945 49.7764C9.12344 56.2165 0 65.0716 0 75C0 84.9284 9.25761 93.7835 25.8945 100.224C28.8462 101.297 31.932 102.37 35.1521 103.309C34.347 106.53 33.6762 109.75 33.1395 112.835C30.322 130.546 33.4079 143.023 41.9946 147.853C44.5438 149.329 47.3614 150 50.5814 150C60.1073 150 72.0483 143.023 83.9893 131.351C96.0644 143.023 108.005 150 117.397 150C120.617 150 123.435 149.329 125.984 147.853C134.571 142.889 137.657 130.411 134.839 112.835C134.302 109.75 133.631 106.53 132.826 103.309C136.047 102.37 139.132 101.431 142.084 100.224C158.855 93.7835 167.979 84.9284 167.979 75C167.979 65.0716 158.855 56.2165 142.084 49.7764ZM122.227 8.8551C127.728 12.0751 129.606 22.0036 127.326 36.0912C126.923 38.9088 126.252 41.8605 125.447 44.9463C118.47 43.3363 111.091 42.263 103.309 41.5921C98.7478 35.1521 94.0519 29.3828 89.356 24.1503C99.2844 14.356 109.347 7.64758 117.531 7.64758C119.275 7.64758 120.886 8.05009 122.227 8.8551V8.8551ZM107.2 88.4168C104.785 92.7102 101.968 97.0036 99.0161 101.297C94.0519 101.699 89.0877 101.834 83.9893 101.834C78.7567 101.834 73.7925 101.699 68.9624 101.297C66.0107 97.0036 63.3274 92.7102 60.9123 88.4168C58.3631 83.9893 55.9481 79.4275 53.8014 75C55.9481 70.5724 58.3631 66.0107 60.9123 61.5832C63.3274 57.2898 66.1449 52.9964 69.0966 48.703C74.0608 48.3005 79.025 48.1664 84.1234 48.1664C89.356 48.1664 94.3202 48.3005 99.1503 48.703C102.102 52.9964 104.785 57.2898 107.2 61.5832C109.75 66.0107 112.165 70.5724 114.311 75C112.03 79.4275 109.75 83.8551 107.2 88.4168ZM118.336 83.9893C120.349 88.6851 121.959 93.2469 123.435 97.8086C118.873 98.8819 114.043 99.6869 108.945 100.358C110.555 97.8086 112.299 95.1252 113.775 92.3077C115.385 89.4902 116.86 86.6726 118.336 83.9893ZM83.9893 120.349C80.7692 116.86 77.6834 113.104 74.7317 109.213C77.8175 109.347 80.9034 109.481 83.9893 109.481C87.0751 109.481 90.161 109.347 93.2469 109.213C90.2952 113.104 87.2093 116.86 83.9893 120.349ZM59.034 100.224C53.9356 99.5528 49.1055 98.7478 44.5438 97.6744C46.0197 93.2469 47.6297 88.551 49.6422 83.8551C51.1181 86.5385 52.5939 89.356 54.2039 92.0393C55.814 94.991 57.424 97.5402 59.034 100.224V100.224ZM49.6422 66.0107C47.6297 61.3148 46.0197 56.7531 44.5438 52.1914C49.1055 51.1181 53.9356 50.3131 59.034 49.6422C57.424 52.1914 55.6798 54.8748 54.2039 57.6923C52.5939 60.5098 51.1181 63.3274 49.6422 66.0107V66.0107ZM83.9893 29.6512C87.2093 33.1395 90.2952 36.8962 93.2469 40.7871C90.161 40.6529 87.0751 40.5188 83.9893 40.5188C80.9034 40.5188 77.8175 40.6529 74.7317 40.7871C77.6834 36.8962 80.7692 33.1395 83.9893 29.6512V29.6512ZM113.775 57.8265L108.945 49.7764C114.043 50.4472 118.873 51.2522 123.435 52.3256C121.959 56.7531 120.349 61.449 118.336 66.1449C116.86 63.3274 115.385 60.5098 113.775 57.8265V57.8265ZM40.653 36.0912C38.3721 22.0036 40.2504 12.0751 45.7513 8.8551C47.093 8.05009 48.703 7.64758 50.4472 7.64758C58.4973 7.64758 68.5599 14.2218 78.6225 24.1503C73.9267 29.2487 69.2308 35.1521 64.669 41.5921C56.8873 42.263 49.508 43.4705 42.5313 44.9463C41.7263 41.8605 41.1896 38.9088 40.653 36.0912ZM7.51342 75C7.51342 68.6941 15.161 61.9857 28.5778 57.0215C31.2612 55.9481 34.2129 55.0089 37.1646 54.2039C39.3113 60.9123 41.9946 68.0233 45.2147 75.1342C41.9946 82.2451 39.1771 89.2218 37.1646 95.9302C18.6494 90.5635 7.51342 82.5134 7.51342 75V75ZM45.7513 141.145C40.2504 137.925 38.3721 127.996 40.653 113.909C41.0555 111.091 41.7263 108.14 42.5313 105.054C49.508 106.664 56.8873 107.737 64.669 108.408C69.2308 114.848 73.9267 120.617 78.6225 125.85C68.6941 135.644 58.6315 142.352 50.4472 142.352C48.703 142.352 47.093 141.95 45.7513 141.145ZM127.326 113.909C129.606 127.996 127.728 137.925 122.227 141.145C120.886 141.95 119.275 142.352 117.531 142.352C109.481 142.352 99.4186 135.778 89.356 125.85C94.0519 120.751 98.7478 114.848 103.309 108.408C111.091 107.737 118.47 106.53 125.447 105.054C126.252 108.14 126.789 111.091 127.326 113.909V113.909ZM139.401 92.9785C136.717 94.0519 133.766 94.9911 130.814 95.7961C128.667 89.0877 125.984 81.9767 122.764 74.8658C125.984 67.7549 128.801 60.7782 130.814 54.0698C149.329 59.4365 160.465 67.4866 160.465 75C160.465 81.3059 152.683 88.0143 139.401 92.9785V92.9785Z" fill="#61DAFB"/>
</svg>
