<svg width="434" height="385" viewBox="0 0 434 385" fill="none" xmlns="http://www.w3.org/2000/svg">
<path d="M0 64.2L64 0H103.4L19.8 83.6L0 64.2Z" fill="#3FB6D3"/>
<path d="M64 128H103.4L69.3 93.9L103.4 59.1H64L29.9 93.5L64 128Z" fill="#3FB6D3"/>
<path d="M69.3 93.9L49.3 73.9L29.9 93.5L49.3 113.1L69.3 93.9Z" fill="#27AACD"/>
<path d="M103.4 128L69.3 93.9L49.3 113.1L64 128H103.4Z" fill="#19599A"/>
<path d="M49.3 113.1L80.1 104.7L69.3 93.9L49.3 113.1Z" fill="url(#paint0_linear)"/>
<path fill-rule="evenodd" clip-rule="evenodd" d="M357.884 251.609C358.08 251.363 358.359 251.145 358.458 250.865C359.189 248.815 359.875 246.75 360.601 244.699C360.694 244.437 360.942 244.23 361.119 243.998L362.374 246.752C362.126 247.104 361.784 247.421 361.646 247.813L359.242 254.872C359.143 255.155 358.805 255.355 358.579 255.594L357.884 251.609Z" fill="#B6B598"/>
<path fill-rule="evenodd" clip-rule="evenodd" d="M358.579 255.593C358.806 255.355 359.143 255.154 359.242 254.871L361.646 247.812C361.783 247.421 362.126 247.103 362.374 246.751L363.589 247.788C363.002 248.368 362.676 249.038 362.872 249.885L362.503 251.093C362.335 251.3 362.092 251.48 362.009 251.717C361.17 254.12 360.369 256.536 359.524 258.939C359.417 259.244 359.12 259.483 358.91 259.751C358.801 258.364 358.69 256.98 358.579 255.593Z" fill="#C2C1A7"/>
<path fill-rule="evenodd" clip-rule="evenodd" d="M358.911 259.751C359.12 259.482 359.417 259.243 359.525 258.939C360.37 256.537 361.171 254.121 362.01 251.717C362.093 251.481 362.335 251.3 362.504 251.093L361.995 256.638C361.859 256.795 361.662 256.932 361.597 257.115C361.022 258.729 360.48 260.355 359.903 261.969C359.784 262.302 359.556 262.596 359.378 262.907C359.22 262.7 358.937 262.5 358.924 262.284C358.873 261.443 358.908 260.596 358.911 259.751Z" fill="#CECDB7"/>
<path fill-rule="evenodd" clip-rule="evenodd" d="M359.377 262.907C359.555 262.595 359.783 262.301 359.902 261.969C360.48 260.356 361.021 258.73 361.596 257.115C361.661 256.932 361.859 256.796 361.994 256.638L362.006 260.278L360.788 263.402L359.377 262.907Z" fill="#DBDAC7"/>
<path fill-rule="evenodd" clip-rule="evenodd" d="M360.788 263.403L362.006 260.279L362.257 263.975L360.788 263.403Z" fill="#EBE9DC"/>
<path fill-rule="evenodd" clip-rule="evenodd" d="M362.872 249.886C362.676 249.039 363.001 248.368 363.589 247.789L363.926 248.019L362.872 249.886Z" fill="#CECDB7"/>
<path fill-rule="evenodd" clip-rule="evenodd" d="M360.444 219.741C360.525 219.715 360.666 219.707 360.679 219.661C361.17 217.979 362.675 218.23 363.891 218.02C367.323 217.426 370.766 216.89 374.204 216.333C377.53 215.794 380.856 215.252 384.185 214.729C384.579 214.667 384.99 214.718 385.393 214.717C384.771 216.937 384.281 219.205 383.492 221.364C382.596 223.813 381.512 226.203 380.361 228.546C378.641 232.049 376.498 235.316 374.008 238.309C372.089 240.617 369.95 242.75 367.806 244.857C366.621 246.022 365.224 246.971 363.924 248.018L363.587 247.788L362.373 246.75L361.117 243.997C360.252 240.774 359.798 237.493 359.723 234.159L359.746 233.598L359.917 231.172C359.974 230.344 360.05 229.517 360.085 228.687C360.214 225.705 360.326 222.723 360.444 219.741Z" fill="#409433"/>
<path fill-rule="evenodd" clip-rule="evenodd" d="M383.446 181.8C385.051 186.443 386.207 191.183 386.587 196.096C387.059 202.191 386.843 208.243 385.558 214.238C385.523 214.403 385.449 214.558 385.394 214.718C384.991 214.719 384.58 214.669 384.186 214.73C380.857 215.253 377.531 215.795 374.205 216.334C370.767 216.891 367.324 217.426 363.892 218.021C362.676 218.231 361.171 217.98 360.68 219.662C360.666 219.708 360.526 219.716 360.445 219.742L360.611 209.691C360.554 201.607 360.498 193.523 360.442 185.439L362.044 185.164C364.664 184.735 367.284 184.3 369.906 183.883C373.035 183.386 376.167 182.903 379.298 182.418C380.679 182.203 382.062 182.006 383.446 181.8Z" fill="#439934"/>
<path fill-rule="evenodd" clip-rule="evenodd" d="M357.137 249.042C355.447 247.589 353.698 246.2 352.078 244.672C343.361 236.45 336.985 226.773 333.845 215.106C332.98 211.895 332.403 208.632 332.218 205.314C332.088 202.992 331.9 200.649 332.064 198.339C332.501 192.195 333.389 186.11 335.191 180.192L335.29 180.054C335.465 180.287 335.717 180.493 335.806 180.756C337.565 185.936 339.311 191.12 341.048 196.307C346.506 212.607 351.957 228.911 357.424 245.207C357.531 245.525 357.808 245.786 358.007 246.073L357.137 249.042Z" fill="#45A538"/>
<path fill-rule="evenodd" clip-rule="evenodd" d="M383.446 181.8C382.062 182.006 380.678 182.203 379.297 182.416C376.166 182.901 373.034 183.384 369.905 183.881C367.283 184.298 364.663 184.733 362.043 185.162L360.441 185.437L360.429 184.392C360.376 183.533 360.285 182.675 360.275 181.816C360.206 176.338 360.163 170.86 360.095 165.382C360.053 161.953 359.99 158.525 359.92 155.097C359.877 152.967 359.831 150.836 359.735 148.709C359.683 147.566 359.499 146.429 359.424 145.286C359.382 144.629 359.44 143.967 359.453 143.307C360.27 144.89 361.069 146.485 361.909 148.056C363.236 150.54 365.35 152.37 367.253 154.367C374.776 162.259 380.117 171.435 383.446 181.8Z" fill="#46A037"/>
<path fill-rule="evenodd" clip-rule="evenodd" d="M360.444 219.741C360.326 222.723 360.214 225.705 360.087 228.688C360.052 229.518 359.976 230.345 359.919 231.173L359.154 231.462C357.455 226.46 355.755 221.511 354.092 216.549C351.342 208.34 348.625 200.118 345.879 191.907C343.662 185.279 341.427 178.658 339.179 172.04C339.074 171.73 338.772 171.488 338.562 171.214L343.458 162.212C343.626 162.504 343.848 162.777 343.954 163.091C346.219 169.794 348.48 176.498 350.722 183.209C353.638 191.939 356.536 200.676 359.45 209.407C359.566 209.756 359.758 210.078 359.941 210.469L360.611 209.689C360.555 213.04 360.499 216.39 360.444 219.741Z" fill="#4FAA41"/>
<path fill-rule="evenodd" clip-rule="evenodd" d="M338.563 171.215C338.773 171.489 339.074 171.731 339.18 172.041C341.428 178.659 343.663 185.28 345.88 191.908C348.626 200.119 351.343 208.341 354.093 216.55C355.755 221.511 357.455 226.461 359.155 231.463L359.92 231.174L359.749 233.6L359.594 234.159C359.328 236.815 359.104 239.477 358.78 242.127C358.617 243.455 358.271 244.759 358.008 246.074C357.81 245.787 357.532 245.526 357.425 245.208C351.958 228.911 346.507 212.608 341.049 196.308C339.312 191.121 337.566 185.937 335.807 180.757C335.718 180.494 335.467 180.288 335.291 180.055C336.381 177.108 337.472 174.161 338.563 171.215Z" fill="#4AA73C"/>
<path fill-rule="evenodd" clip-rule="evenodd" d="M360.61 209.69L359.94 210.47C359.757 210.079 359.565 209.756 359.449 209.408C356.536 200.677 353.637 191.94 350.721 183.21C348.479 176.499 346.218 169.795 343.953 163.092C343.848 162.778 343.626 162.504 343.457 162.213L349.512 154.248C349.703 154.503 349.975 154.73 350.074 155.017C351.755 159.938 353.421 164.865 355.077 169.795C356.624 174.399 358.148 179.01 359.713 183.608C359.818 183.916 360.183 184.134 360.427 184.394L360.439 185.439C360.497 193.521 360.554 201.606 360.61 209.69Z" fill="#57AE47"/>
<path fill-rule="evenodd" clip-rule="evenodd" d="M360.429 184.392C360.185 184.132 359.82 183.914 359.715 183.606C358.15 179.008 356.626 174.397 355.079 169.793C353.423 164.863 351.757 159.937 350.076 155.015C349.977 154.728 349.705 154.501 349.514 154.246C351.483 152.318 353.391 150.321 355.439 148.482C357.26 146.848 358.724 145.096 358.791 142.514C358.794 142.407 358.85 142.3 358.936 142L359.455 143.306C359.442 143.967 359.383 144.628 359.426 145.285C359.501 146.428 359.685 147.565 359.737 148.708C359.833 150.835 359.879 152.966 359.922 155.096C359.991 158.524 360.054 161.952 360.097 165.381C360.164 170.859 360.208 176.337 360.277 181.815C360.285 182.676 360.375 183.533 360.429 184.392Z" fill="#60B24F"/>
<path fill-rule="evenodd" clip-rule="evenodd" d="M358.006 246.073C358.269 244.758 358.615 243.453 358.778 242.126C359.103 239.477 359.326 236.814 359.592 234.158L359.658 234.148L359.724 234.159C359.799 237.493 360.253 240.774 361.118 243.997C360.942 244.229 360.693 244.436 360.6 244.698C359.873 246.748 359.188 248.814 358.457 250.864C358.357 251.144 358.079 251.362 357.883 251.608L357.136 249.042L358.006 246.073Z" fill="#A9AA88"/>
<path fill-rule="evenodd" clip-rule="evenodd" d="M359.724 234.16L359.658 234.149L359.592 234.159L359.747 233.6L359.724 234.16Z" fill="#4FAA41"/>
<path fill-rule="evenodd" clip-rule="evenodd" d="M308 39.156C308 39.859 308.207 40.323 308.323 40.774C309.079 43.707 310.704 46.224 312.632 48.52C315.378 51.792 318.741 54.426 322.186 56.903C325.174 59.051 328.223 61.151 331.223 63.283C331.738 63.649 332.225 64.07 332.784 64.519C332.303 64.779 331.903 65.008 331.487 65.219C327.528 67.227 323.719 69.478 320.208 72.205C318.092 73.849 316.046 75.596 314.601 77.879C312.276 81.551 311.453 85.463 313.186 89.64C313.692 90.86 314.464 91.914 315.553 92.693C315.906 92.945 316.302 93.195 316.715 93.293C317.773 93.542 318.851 93.705 319.922 93.902L322.955 93.9C326.309 93.601 329.362 92.452 332.121 90.548C336.433 87.572 339.338 83.582 340.587 78.461C341.495 74.739 341.532 71.013 340.462 67.308C340.363 66.964 340.238 66.627 340.108 66.294C339.978 65.961 339.825 65.637 339.645 65.222L346.521 61.268L346.624 61.356C346.499 61.765 346.366 62.173 346.253 62.586C345.436 65.57 344.893 68.606 345.088 71.703C345.296 75.003 346.217 78.092 348.149 80.849C349.711 83.079 353.433 83.162 355.093 80.924C355.682 80.129 356.253 79.298 356.682 78.411C357.803 76.096 358.841 73.74 359.912 71.4L360.099 70.972C360.022 72.08 359.932 73.053 359.891 74.027C359.827 75.548 359.916 77.06 360.436 78.507C360.881 79.745 361.638 80.67 363.056 80.833C364.026 80.944 364.799 80.5 365.512 79.937C366.626 79.058 367.531 77.972 368.203 76.738C370.104 73.247 372.056 69.777 373.779 66.198C375.643 62.327 377.273 58.343 379.004 54.406L379.29 53.708C379.699 55.315 379.984 56.889 380.509 58.379C381.119 60.108 381.874 61.796 382.696 63.437C383.085 64.212 383.04 64.715 382.501 65.365C380.245 68.085 378.028 70.838 375.809 73.588C375.318 74.195 374.829 74.813 374.42 75.476C374.173 75.879 374.009 76.37 373.94 76.84C373.807 77.738 374.362 78.604 375.323 78.811C376.201 79 377.136 79.07 378.031 79.004C381.128 78.776 383.94 77.689 386.426 75.847C389.647 73.461 390.681 70.205 389.901 66.346C389.69 65.299 389.317 64.281 388.954 63.272C388.791 62.817 388.78 62.498 389.077 62.074C391.652 58.397 393.852 54.496 395.898 50.505C395.979 50.348 396.062 50.191 396.204 50.023C396.867 53.473 397.865 56.798 399.653 59.815C398.741 60.694 397.838 61.491 397.021 62.369C395.222 64.303 393.662 66.403 392.848 68.964C392.498 70.068 392.229 71.19 392.385 72.369C392.627 74.2 394.127 75.39 395.928 74.973C399.782 74.081 403.109 72.265 405.54 69.048C407.176 66.882 407.325 64.466 406.64 61.935C406.452 61.247 406.229 60.57 405.989 59.781C406.94 59.486 407.867 59.132 408.826 58.913C413.805 57.777 418.73 57.975 423.528 59.773C426.329 60.823 428.592 62.58 429.934 65.344C431.573 68.723 430.667 71.929 427.482 74.065C427.185 74.264 426.845 74.421 426.599 74.67C426.448 74.823 426.357 75.129 426.394 75.34C426.415 75.463 426.74 75.617 426.927 75.615C427.974 75.607 428.823 75.058 429.638 74.494C431.68 73.081 433.17 71.18 433.491 68.677L433.554 68.489L433.477 66.859C433.446 66.765 433.5 66.672 433.493 66.601C433.059 62.956 431.112 60.129 428.28 57.913C425 55.348 421.127 54.292 417.031 54.125C413.693 53.989 410.412 54.485 407.266 55.628C406.369 55.953 405.48 56.338 404.578 56.701C404.457 56.482 404.327 56.272 404.22 56.055C403.294 54.159 402.172 52.347 401.924 50.173C401.748 48.629 401.532 47.087 401.899 45.56C402.252 44.091 402.712 42.647 403.145 41.198C403.368 40.452 403.211 40.034 402.499 39.698C402.251 39.581 401.981 39.479 401.713 39.44C399.963 39.186 398.237 39.331 396.542 39.824C395.942 39.999 395.506 40.335 395.373 40.999C395.297 41.38 395.142 41.745 395.034 42.121C394.591 43.684 394.277 45.277 393.561 46.766C391.767 50.501 389.719 54.095 387.623 57.663C387.396 58.048 387.157 58.426 386.871 58.893C386.135 57.353 385.35 55.971 385.112 54.351C384.843 52.519 384.631 50.69 385.087 48.872C385.426 47.516 385.869 46.185 386.277 44.847C386.47 44.211 386.381 43.877 385.805 43.542C385.514 43.373 385.185 43.223 384.857 43.174C383.042 42.905 381.254 43.046 379.503 43.612C378.96 43.788 378.675 44.139 378.509 44.699C378.021 46.351 377.605 48.043 376.92 49.614C374.146 55.974 371.292 62.301 368.441 68.627C367.846 69.948 367.149 71.223 366.478 72.509C366.308 72.835 366.06 73.122 365.848 73.428C365.678 73.227 365.612 73.089 365.613 72.951C365.618 72.138 365.521 71.301 365.676 70.515C366.145 68.137 366.685 65.772 367.254 63.416C367.724 61.47 368.271 59.542 368.792 57.609C368.967 56.962 368.97 56.357 368.505 55.813C367.724 54.902 366.092 54.702 365.124 55.404L364.696 55.646L364.779 54.956C364.983 53.477 365.024 52.003 364.618 50.546C364.112 48.73 362.816 47.685 360.932 47.743C360.054 47.77 359.132 47.92 358.319 48.24C354.9 49.58 352.271 51.953 350.033 54.808C349.83 55.067 349.562 55.303 349.276 55.462C346.383 57.066 343.481 58.65 340.58 60.24L337.351 62.009C336.485 61.183 335.698 60.326 334.805 59.599C332.078 57.375 329.307 55.206 326.561 53.007C324.127 51.058 321.769 49.028 319.965 46.447C318.623 44.527 317.758 42.426 317.675 40.052C317.57 37.027 318.428 34.263 319.968 31.69C321.938 28.398 324.625 25.756 327.579 23.363C330.704 20.833 334.084 18.685 337.587 16.724C342.488 13.981 347.529 11.553 352.934 9.95C358.476 8.306 364.099 7.365 369.899 8.021C372.179 8.279 374.393 8.801 376.426 9.916C377.983 10.769 379.26 11.886 379.854 13.632C380.44 15.35 380.422 17.091 380.016 18.836C379.191 22.37 377.256 25.283 374.821 27.886C370.827 32.153 365.955 35.058 360.47 36.977C357.305 38.084 354.049 38.779 350.705 39.06C347.976 39.289 345.304 39.047 342.72 38.098C341.009 37.469 339.519 36.507 338.321 35.111C338.107 34.861 337.833 34.59 337.434 34.824C337.043 35.054 336.974 35.426 337.105 35.803C337.324 36.429 337.526 37.081 337.867 37.641C338.724 39.046 339.974 40.065 341.35 40.939C343.993 42.62 346.947 43.185 350.01 43.316C354.658 43.517 359.193 42.823 363.664 41.576C370.047 39.796 375.597 36.652 380.048 31.692C383.754 27.562 386.401 22.901 386.968 17.273C387.245 14.526 386.95 11.835 385.664 9.329C384.269 6.614 382.051 4.595 379.399 3.204C375.537 1.179 371.369 0 367.067 0H362.757C357.547 0 352.51 1.493 347.614 3.274C343.908 4.623 340.274 6.215 336.746 7.977C329.063 11.816 321.908 16.445 316.031 22.81C313.103 25.981 310.624 29.48 309.198 33.6C308.781 34.806 308.385 36.099 308.087 37.346L308 39.156ZM335.926 73.359C335.593 77.818 333.572 81.433 330.269 84.361C328.411 86.007 326.28 87.179 323.798 87.591C322.898 87.74 321.977 87.776 321.104 87.403C319.859 86.871 319.58 85.766 319.556 84.589C319.519 82.713 320.176 81.017 321.077 79.403C322.253 77.299 323.977 75.695 325.818 74.197C328.718 71.836 331.864 69.838 335.086 67.952L335.329 67.852C335.827 69.692 336.064 71.509 335.926 73.359ZM361.084 53.98C360.849 55.404 360.555 56.829 360.139 58.209C358.701 62.986 356.854 67.615 354.857 72.182C354.488 73.027 353.951 73.798 353.484 74.599C353.412 74.723 353.305 74.83 353.201 74.933C352.623 75.504 352.075 75.474 351.783 74.727C351.443 73.859 351.234 72.93 351.054 72.011C350.933 71.394 350.962 70.746 350.924 70.114C350.963 65.62 352.334 61.536 354.66 57.734C355.619 56.166 356.663 54.672 358.258 53.68C358.748 53.375 359.298 53.13 359.853 52.974C360.703 52.735 361.225 53.128 361.084 53.98ZM378.248 75.848L384.417 68.645C384.674 71.32 380.127 76.66 378.248 75.848ZM397.951 71.001C397.515 71.251 397.04 71.431 396.593 71.662C396.184 71.874 396.049 71.66 396.037 71.308C396.029 71.069 396.064 70.819 396.13 70.587C396.963 67.649 398.496 65.141 400.777 63.101L400.937 63.019C402.022 66.054 400.768 69.387 397.951 71.001Z" fill="#CB6699"/>
<path d="M160 55H260V155.001H160V55Z" fill="#F0DB4F"/>
<path d="M251.816 131.15C251.084 126.588 248.109 122.756 239.297 119.183C236.236 117.776 232.823 116.769 231.806 114.449C231.445 113.099 231.397 112.339 231.626 111.522C232.282 108.869 235.447 108.043 237.956 108.803C239.572 109.345 241.102 110.59 242.025 112.577C246.34 109.783 246.331 109.801 249.344 107.881C248.241 106.17 247.653 105.381 246.93 104.649C244.335 101.75 240.799 100.257 235.143 100.372L232.197 100.753C229.374 101.466 226.683 102.948 225.106 104.934C220.372 110.306 221.722 119.706 227.482 123.575C233.157 127.834 241.494 128.803 242.558 132.786C243.595 137.662 238.975 139.241 234.383 138.68C231 137.976 229.117 136.256 227.083 133.129C223.338 135.296 223.338 135.296 219.488 137.511C220.401 139.507 221.36 140.41 222.891 142.14C230.134 149.487 248.261 149.126 251.513 138.005C251.644 137.623 252.52 135.077 251.816 131.15V131.15ZM214.363 100.96H205.01L204.971 125.142C204.971 130.285 205.237 135 204.401 136.445C203.033 139.287 199.487 138.935 197.871 138.384C196.226 137.575 195.39 136.426 194.421 134.801C194.155 134.334 193.955 133.973 193.888 133.945L186.283 138.603C187.547 141.198 189.41 143.451 191.796 144.914C195.361 147.053 200.151 147.709 205.162 146.559C208.422 145.609 211.236 143.642 212.709 140.647C214.838 136.721 214.382 131.968 214.362 126.712C214.41 118.137 214.363 109.563 214.363 100.96Z" fill="#323330"/>
<path d="M68.6 224.3C74.896 224.3 80 219.196 80 212.9C80 206.604 74.896 201.5 68.6 201.5C62.304 201.5 57.2 206.604 57.2 212.9C57.2 219.196 62.304 224.3 68.6 224.3Z" fill="#61DAFB"/>
<path d="M111.9 194.1C109.7 193.3 107.4 192.5 105 191.8C105.6 189.4 106.1 187 106.5 184.7C108.6 171.5 106.3 162.2 99.9 158.6C98 157.5 95.9 157 93.5 157C86.5 157 77.6 162.2 68.6 170.9C59.6 162.2 50.7 157 43.7 157C41.3 157 39.2 157.5 37.3 158.6C30.9 162.3 28.6 171.6 30.7 184.7C31.1 187 31.6 189.4 32.2 191.8C29.8 192.5 27.5 193.2 25.3 194.1C12.8 198.9 6 205.5 6 212.9C6 220.3 12.9 226.9 25.3 231.7C27.5 232.5 29.8 233.3 32.2 234C31.6 236.4 31.1 238.8 30.7 241.1C28.6 254.3 30.9 263.6 37.3 267.2C39.2 268.3 41.3 268.8 43.7 268.8C50.8 268.8 59.7 263.6 68.6 254.9C77.6 263.6 86.5 268.8 93.5 268.8C95.9 268.8 98 268.3 99.9 267.2C106.3 263.5 108.6 254.2 106.5 241.1C106.1 238.8 105.6 236.4 105 234C107.4 233.3 109.7 232.6 111.9 231.7C124.4 226.9 131.2 220.3 131.2 212.9C131.2 205.5 124.4 198.9 111.9 194.1ZM97.1 163.6C101.2 166 102.6 173.4 100.9 183.9C100.6 186 100.1 188.2 99.5 190.5C94.3 189.3 88.8 188.5 83 188C79.6 183.2 76.1 178.9 72.6 175C80 167.7 87.5 162.7 93.6 162.7C94.9 162.7 96.1 163 97.1 163.6ZM85.9 222.9C84.1 226.1 82 229.3 79.8 232.5C76.1 232.8 72.4 232.9 68.6 232.9C64.7 232.9 61 232.8 57.4 232.5C55.2 229.3 53.2 226.1 51.4 222.9C49.5 219.6 47.7 216.2 46.1 212.9C47.7 209.6 49.5 206.2 51.4 202.9C53.2 199.7 55.3 196.5 57.5 193.3C61.2 193 64.9 192.9 68.7 192.9C72.6 192.9 76.3 193 79.9 193.3C82.1 196.5 84.1 199.7 85.9 202.9C87.8 206.2 89.6 209.6 91.2 212.9C89.5 216.2 87.8 219.5 85.9 222.9ZM94.2 219.6C95.7 223.1 96.9 226.5 98 229.9C94.6 230.7 91 231.3 87.2 231.8C88.4 229.9 89.7 227.9 90.8 225.8C92 223.7 93.1 221.6 94.2 219.6ZM68.6 246.7C66.2 244.1 63.9 241.3 61.7 238.4C64 238.5 66.3 238.6 68.6 238.6C70.9 238.6 73.2 238.5 75.5 238.4C73.3 241.3 71 244.1 68.6 246.7ZM50 231.7C46.2 231.2 42.6 230.6 39.2 229.8C40.3 226.5 41.5 223 43 219.5C44.1 221.5 45.2 223.6 46.4 225.6C47.6 227.8 48.8 229.7 50 231.7ZM43 206.2C41.5 202.7 40.3 199.3 39.2 195.9C42.6 195.1 46.2 194.5 50 194C48.8 195.9 47.5 197.9 46.4 200C45.2 202.1 44.1 204.2 43 206.2ZM68.6 179.1C71 181.7 73.3 184.5 75.5 187.4C73.2 187.3 70.9 187.2 68.6 187.2C66.3 187.2 64 187.3 61.7 187.4C63.9 184.5 66.2 181.7 68.6 179.1ZM90.8 200.1L87.2 194.1C91 194.6 94.6 195.2 98 196C96.9 199.3 95.7 202.8 94.2 206.3C93.1 204.2 92 202.1 90.8 200.1ZM36.3 183.9C34.6 173.4 36 166 40.1 163.6C41.1 163 42.3 162.7 43.6 162.7C49.6 162.7 57.1 167.6 64.6 175C61.1 178.8 57.6 183.2 54.2 188C48.4 188.5 42.9 189.4 37.7 190.5C37.1 188.2 36.7 186 36.3 183.9ZM11.6 212.9C11.6 208.2 17.3 203.2 27.3 199.5C29.3 198.7 31.5 198 33.7 197.4C35.3 202.4 37.3 207.7 39.7 213C37.3 218.3 35.2 223.5 33.7 228.5C19.9 224.5 11.6 218.5 11.6 212.9ZM40.1 262.2C36 259.8 34.6 252.4 36.3 241.9C36.6 239.8 37.1 237.6 37.7 235.3C42.9 236.5 48.4 237.3 54.2 237.8C57.6 242.6 61.1 246.9 64.6 250.8C57.2 258.1 49.7 263.1 43.6 263.1C42.3 263.1 41.1 262.8 40.1 262.2ZM100.9 241.9C102.6 252.4 101.2 259.8 97.1 262.2C96.1 262.8 94.9 263.1 93.6 263.1C87.6 263.1 80.1 258.2 72.6 250.8C76.1 247 79.6 242.6 83 237.8C88.8 237.3 94.3 236.4 99.5 235.3C100.1 237.6 100.5 239.8 100.9 241.9ZM109.9 226.3C107.9 227.1 105.7 227.8 103.5 228.4C101.9 223.4 99.9 218.1 97.5 212.8C99.9 207.5 102 202.3 103.5 197.3C117.3 201.3 125.6 207.3 125.6 212.9C125.6 217.6 119.8 222.6 109.9 226.3Z" fill="#61DAFB"/>
<path d="M267.771 290.793L223.674 265.188C220.893 263.604 217.272 263.604 214.469 265.188L169.901 290.793C167.031 292.444 165 295.547 165 298.866V350.008C165 353.327 167.084 356.431 169.954 358.091L181.729 364.779C187.357 367.551 189.346 367.551 191.907 367.551C200.24 367.551 205 362.512 205 353.723V303.233C205 302.52 204.629 301.459 203.929 301.459H198.306C197.594 301.459 196 302.52 196 303.232V353.722C196 357.618 192.476 361.495 185.89 358.202L173.723 351.189C173.299 350.959 173 350.496 173 350.008V298.866C173 298.384 173.555 297.9 173.982 297.653L218.406 272.092C218.821 271.857 219.431 271.857 219.845 272.092L263.727 297.647C264.147 297.9 263.999 298.369 263.999 298.866V350.008C263.999 350.496 264.182 350.971 263.767 351.206L219.681 376.782C219.303 377.009 218.834 377.009 218.42 376.782L207.113 370.033C206.772 369.835 206.367 369.764 206.04 369.947C202.894 371.73 202.314 371.967 199.363 372.99C198.637 373.243 197.566 373.682 199.773 374.919L214.571 383.673C215.988 384.493 217.598 384.919 219.218 384.919C220.86 384.919 222.468 384.493 223.885 383.673L267.77 358.091C270.64 356.419 272 353.327 272 350.008V298.866C272 295.547 270.64 292.452 267.771 290.793ZM232.91 341.904C221.184 341.904 218.601 338.669 217.74 332.838C217.64 332.21 217.107 331.459 216.468 331.459H210.737C210.028 331.459 209.458 332.319 209.458 333.025C209.458 340.491 213.517 349.537 232.911 349.537C246.95 349.537 254.999 344.082 254.999 334.428C254.999 324.856 248.532 322.344 234.917 320.542C221.155 318.723 219.757 317.804 219.757 314.58C219.757 311.922 220.941 308.377 231.131 308.377C240.236 308.377 243.592 310.331 244.973 316.468C245.091 317.045 245.618 317.459 246.213 317.459H251.967C252.321 317.459 252.659 317.316 252.907 317.063C253.147 316.791 253.274 316.45 253.242 316.084C252.351 305.516 245.33 300.591 231.13 300.591C218.499 300.591 210.964 305.925 210.964 314.866C210.964 324.564 218.461 327.244 230.586 328.443C245.091 329.865 246.219 331.985 246.219 334.838C246.219 339.793 242.241 341.904 232.91 341.904Z" fill="#83CD29"/>
<path d="M281.37 245.839C276.81 246.999 273.99 245.889 271.46 242.089C265.78 233.579 259.51 225.459 253.46 217.189C252.68 216.119 251.87 215.069 250.86 213.739C243.7 223.399 236.55 232.599 229.84 242.169C227.44 245.589 224.92 247.079 220.44 245.869L247.36 209.739L222.3 177.109C226.61 176.269 229.59 176.699 232.23 180.559C238.06 189.079 244.49 197.189 250.9 205.769C257.35 197.219 263.7 189.099 269.7 180.659C272.11 177.239 274.7 175.939 279.03 177.199C275.75 181.549 272.54 185.829 269.31 190.079C264.95 195.809 260.67 201.609 256.15 207.219C254.54 209.219 254.8 210.519 256.24 212.409C264.6 223.399 272.86 234.499 281.37 245.839Z" fill="black"/>
<path d="M156.03 209.139C156.75 205.529 157.23 201.849 158.23 198.309C164.23 176.879 188.83 167.969 205.73 181.249C215.63 189.039 218.09 200.019 217.6 212.399H161.8C160.96 234.609 176.95 248.019 197.33 241.179C204.48 238.779 208.69 233.179 210.8 226.179C211.87 222.669 213.64 222.119 216.94 223.119C215.25 231.879 211.42 239.199 203.42 243.779C191.42 250.639 174.29 248.419 165.28 238.889C159.96 233.289 157.7 226.319 156.7 218.789C156.55 217.589 156.24 216.409 156 215.219C156.02 213.192 156.03 211.166 156.03 209.139ZM161.9 207.649H212.33C212 191.589 202 180.179 188.33 180.079C173.33 179.959 162.55 191.099 161.9 207.649Z" fill="black"/>
<defs>
<linearGradient id="paint0_linear" x1="47.0649" y1="116.36" x2="74.5249" y2="99.3992" gradientUnits="userSpaceOnUse">
<stop stop-color="#1B4E94"/>
<stop offset="0.6305" stop-color="#1A5497"/>
<stop offset="1" stop-color="#195A9B"/>
</linearGradient>
</defs>
</svg>
