<svg width="111" height="134" viewBox="0 0 111 134" fill="none" xmlns="http://www.w3.org/2000/svg">
<path d="M13.7354 32.5602C5.90582 35.6368 -2.13024e-06 44.1433 -1.77177e-06 52.344L-5.45525e-07 80.3973C-1.23246e-07 90.0579 8.09552 95.3561 17.3189 91.7318L97.2646 60.3172C105.094 57.2405 111 48.7341 111 40.5333L111 12.4801C111 2.81945 102.904 -2.47874 93.6811 1.14556L13.7354 32.5602Z" fill="#AD00FF"/>
<path d="M13.7354 100.637C5.90582 97.517 -1.95658e-06 88.8914 -2.32007e-06 80.5759L-3.45991e-06 54.4993C-3.95719e-06 43.1228 5.59428 34.1041 14.7781 30.6753L24.1304 27.1834C17.4465 28.0617 18.5671 38.6903 25.6614 41.7046L99.6552 73.1437C106.162 75.9085 111 83.1184 111 90.0513L111 120.998C111 130.794 102.904 136.166 93.6811 132.491L13.7354 100.637Z" fill="#544FDF"/>
<path fill-rule="evenodd" clip-rule="evenodd" d="M20.9477 29.4499C18.1969 32.7576 20.0756 39.8458 25.6818 42.2127L81.6545 65.8447L17.3326 90.8598C8.10195 94.4497 -1.22075e-07 89.2019 -5.40341e-07 79.6331L-1.61985e-06 54.9367C-1.86725e-06 49.2769 1.40114 44.204 3.95224 40.1203C6.40814 36.6289 9.83771 33.7706 13.7463 32.2505L20.9477 29.4499Z" fill="#3EE8FF"/>
</svg>
